<svg width="18" height="20" viewBox="0 0 18 20" fill="none" xmlns="http://www.w3.org/2000/svg">
<path d="M16.2666 4.98466C16.2589 5.404 16.2208 5.83096 16.1827 6.25029C16.1141 7.07372 15.9997 7.88952 15.8472 8.69769C15.5346 10.3445 15.0467 11.9304 14.2766 13.4247C13.072 15.773 11.3032 17.5876 9.00825 18.8914C8.75664 19.0362 8.49742 19.0362 8.24582 18.8914C5.52395 17.3436 3.59501 15.1097 2.42087 12.2049C1.88717 10.8554 1.52883 9.46012 1.3001 8.01913C1.20861 7.47018 1.14761 6.91361 1.09424 6.36466C1.07899 6.24267 1.07137 6.12068 1.05612 5.99107C1.0485 5.86908 1.04087 5.74709 1.03325 5.6251C1.02562 5.50311 1.018 5.3735 1.01037 5.25151C1.01037 5.19052 1.00275 5.12953 1.00275 5.06853C0.995126 4.96942 1.00275 4.87792 1.03325 4.79406C1.03325 4.78643 1.03325 4.77881 1.04087 4.77118C1.04087 4.76356 1.0485 4.75594 1.0485 4.75594C1.07137 4.68732 1.10187 4.62632 1.13999 4.56533C1.13236 4.55008 1.13999 4.54246 1.14761 4.53483C1.17811 4.48146 1.21623 4.43572 1.26198 4.39759C1.2696 4.38997 1.27722 4.38235 1.28485 4.37472C1.29247 4.37472 1.29247 4.3671 1.3001 4.3671C1.30772 4.3671 1.31535 4.35947 1.31535 4.35185C1.45258 4.26036 1.62032 4.19936 1.8033 4.19174C2.24551 4.18411 2.66484 4.03925 3.07655 3.87152C3.79324 3.57417 4.45655 3.17008 5.10461 2.74312C5.94328 2.2018 6.80483 1.69097 7.71974 1.28689C7.87985 1.21827 8.04759 1.15727 8.2077 1.08866C8.48979 0.974291 8.77952 0.966667 9.06162 1.08866C9.4657 1.26401 9.86216 1.43937 10.2663 1.62998C10.9677 1.95782 11.6081 2.40003 12.2638 2.80412C12.889 3.20058 13.5218 3.5818 14.2004 3.87152C14.635 4.0545 15.0772 4.17649 15.5499 4.19936C15.954 4.22224 16.2818 4.57295 16.2666 4.98466Z" stroke="#333333" stroke-width="2" stroke-miterlimit="10" stroke-linecap="round" stroke-linejoin="round"/>
</svg>
